# xmcd
#
# Track frame offsets:
#	150
#	6612
#	38562
#	59045
#	76392
#	91477
#	111210
#	116700
#	134760
#	172007
#	197855
#	215509
#
# Disc length: 3266 seconds
#
# Revision: 0
# Processed by: cddbd v1.5.1PL2 Copyright (c) Steve Scherf et al.
# Submitted via: EasyCDDAExtractor 8.2.1.1
#
DISCID=b70cc00c
DTITLE=big bill broonzy - amsterdam live concerts 1953 [cd 2 - 28 february]
DYEAR=2006
DGENRE=blues
TTITLE0=big bill talks - on michiel de ruyter
TTITLE1=john henry (1)
TTITLE2=back-water blues
TTITLE3=guitar rag
TTITLE4=kansas city blues
TTITLE5=trouble in mind (1)
TTITLE6=the midnight special
TTITLE7=glory of love (2)
TTITLE8=louise, louise blues
TTITLE9=trouble in mind (2)
TTITLE10=good night irene
TTITLE11=john henry (2)
EXTD=
EXTT0=
EXTT1=
EXTT2=
EXTT3=
EXTT4=
EXTT5=
EXTT6=
EXTT7=
EXTT8=
EXTT9=
EXTT10=
EXTT11=
PLAYORDER=
